<?xml version="1.0" encoding="UTF-8"?>
<svg id="svg8" xmlns="http://www.w3.org/2000/svg" xmlns:xlink="http://www.w3.org/1999/xlink" viewBox="0 0 1024 1024">
  <defs>
    <style>
      .cls-1 {
        fill: rgba(151, 136, 8, .12);
      }

      .cls-1, .cls-2, .cls-3, .cls-4, .cls-5, .cls-6 {
        stroke-width: 0px;
      }

      .cls-1, .cls-2, .cls-6 {
        fill-rule: evenodd;
      }

      .cls-4, .cls-7 {
        fill: none;
      }

      .cls-5, .cls-6 {
        fill: #fff;
      }

      .cls-8 {
        clip-path: url(#clippath);
      }

      .cls-7 {
        stroke: #000;
        stroke-width: 51.2px;
      }
    </style>
    <clipPath id="clippath">
      <path class="cls-4" d="M568.11,510.3c132.63,201.47-161.37,315.6-379.08,93.81-116.28-118.46-27.11,15.93-27.11,15.93,0,0,31.15,95.47,149.58,162.39,118.43,66.92,296.12,94.93,296.12,94.93l78.07-299.47-117.57-67.6Z"/>
    </clipPath>
  </defs>
  <circle id="path877-1" class="cls-5" cx="512" cy="512" r="512"/>
  <path id="path987-8" class="cls-6" d="M703.65,138.7c-11.99-1.5-24.26,4.14-30.7,15.3l-65.7,113.85-23.15,40.05v.05l-15.5,26.8.3.15-6.45,11.2-6.45,11.2-83.8-48.4c-3.72-2.15-7.65-3.45-11.65-3.95-12-1.51-24.27,4.13-30.7,15.3l-47.5,82.5-.1-.05c-67.46,111.75-144.65,159.74-220.35,217.35l88.85,331.55c79,47.17,169.24,72.18,261.25,72.4,165.1-.17,319.99-79.94,416-214.25l-169.1-630.9c-1.94-7.91-6.91-15.04-14.55-19.45l-29-16.75c-3.72-2.15-7.7-3.45-11.7-3.95h0Z"/>
  <g id="use873-7">
    <rect id="rect243" class="cls-3" x="550.06" y="207.04" width="239.72" height="95.55" rx="31.01" ry="31.01" transform="translate(114.28 707.58) rotate(-60)"/>
    <rect id="rect245" class="cls-3" x="519.13" y="250.82" width="103.93" height="350.36" rx="31.01" ry="31.01" transform="translate(-83.38 707.58) rotate(-60)"/>
    <path id="path247" class="cls-2" d="M382.26,402.71c-67.46,111.75-144.64,159.72-220.34,217.33,31.43,37.46,65.31,69.81,101.11,98.08l117.13-113.95-78.5,142.31c92.59,63.39,196.57,102.81,305.95,130.88-9.03-107.85,28.3-205.08,78.07-299.47l-303.43-175.19Z"/>
    <g class="cls-8">
      <path id="path249" class="cls-1" d="M382.26,402.71c-67.46,111.75-144.64,159.72-220.34,217.33,31.43,37.46,65.31,69.81,101.11,98.08l117.13-113.95-78.5,142.31c92.59,63.39,196.57,102.81,305.95,130.88-9.03-107.85,28.3-205.08,78.07-299.47l-303.43-175.19Z"/>
    </g>
    <path id="path251" class="cls-5" d="M724.97,165.48s-18.12-20.09-30.84-16.91c-11.53,2.89-32.59,55.67-32.59,55.67,19.76-17.47,24.7-60.6,63.42-38.76Z"/>
    <rect id="rect253" class="cls-3" x="590.68" y="277.4" width="77.25" height="95.55" transform="translate(33.05 707.58) rotate(-60)"/>
  </g>
  <circle id="circle1003-9" class="cls-7" cx="512" cy="512" r="486.4"/>
</svg>